<mxfile host="app.diagrams.net" modified="2023-09-25T15:00:25.727Z" agent="Mozilla/5.0 (X11; Linux x86_64; rv:109.0) Gecko/20100101 Firefox/117.0" version="21.8.2" etag="2FzY5RVSbq6_Hwdiu5wH" type="github">
  <diagram name="Page-1" id="Ca-xNZNN9Vw6XJ0h7gKi">
    <mxGraphModel>
      <root>
        <mxCell id="0" />
        <mxCell id="1" parent="0" />
      </root>
    </mxGraphModel>
  </diagram>
</mxfile>
